<svg xmlns="http://www.w3.org/2000/svg" viewBox="0 0 27.95 24.94"><defs><style>.cls-1{fill:#333;}.cls-2{font-size:10.76px;fill:#fff;font-family:Raleway-Regular, Raleway;letter-spacing:0.1em;}</style></defs><g id="Layer_2" data-name="Layer 2"><g id="Layer_1-2" data-name="Layer 1"><path class="cls-1" d="M0,0V1.92H3.84a.94.94,0,0,1,.89.66l1.8,16a2.89,2.89,0,0,0,2.86,2.56H21.1V19.19H9.39a1,1,0,0,1-1-.85l-.12-1.07H20.48A2.88,2.88,0,0,0,23.3,15l1.84-9.19H7L6.61,2.11l0-.09A2.87,2.87,0,0,0,3.84,0ZM19.18,21.11A1.92,1.92,0,1,0,21.1,23,1.92,1.92,0,0,0,19.18,21.11Zm-9.59,0A1.92,1.92,0,1,0,11.51,23,1.92,1.92,0,0,0,9.59,21.11ZM7.24,7.68H22.81l-1.39,6.9a.94.94,0,0,1-.94.77H8.1Z"/><circle class="cls-1" cx="20.99" cy="7.6" r="6.96"/><text class="cls-2" transform="translate(18.51 9.53)">3</text></g></g></svg>