<svg xmlns="http://www.w3.org/2000/svg" viewBox="0 0 20.15 20.15"><defs><style>.cls-1{fill:#333;}</style></defs><g id="Layer_2" data-name="Layer 2"><g id="Layer_1-2" data-name="Layer 1"><path class="cls-1" d="M20.15,1.26V18.89a1.28,1.28,0,0,1-1.26,1.26h-5V12.31h2.52l.43-2.92h-3V7.12a1.15,1.15,0,0,1,1.26-1.29H17V3.2a14.12,14.12,0,0,0-2.05-.14c-2.77,0-4.17,1.55-4.17,3.81V9.39H8.24v2.92h2.52v7.84H1.26A1.28,1.28,0,0,1,0,18.89V1.26A1.28,1.28,0,0,1,1.26,0H18.89A1.28,1.28,0,0,1,20.15,1.26Z"/></g></g></svg>