<svg xmlns="http://www.w3.org/2000/svg" viewBox="0 0 165.24 74.66"><defs><style>.cls-1{fill:#fff;}</style></defs><g id="Layer_2" data-name="Layer 2"><g id="Layer_1-2" data-name="Layer 1"><path class="cls-1" d="M17,.22a.57.57,0,0,1,.2.44V5.88a.5.5,0,0,1-.36.52v.09H6.45v5.66h7.76a.55.55,0,0,1,.62.62V18a.52.52,0,0,1-.31.52v.09H6.45V30.09a.55.55,0,0,1-.62.62H.61A.54.54,0,0,1,0,30.09V.66A.54.54,0,0,1,.61,0h16A.61.61,0,0,1,17,.22Z"/><path class="cls-1" d="M40.4,15.35a2.35,2.35,0,0,1,0,.4c0,.12-.07.23-.11.35a1.15,1.15,0,0,1-.29.39L37.46,19l-.13.08,4.47,11a.35.35,0,0,1-.15.42.74.74,0,0,1-.46.2H35.31a.71.71,0,0,1-.48-.2,1.09,1.09,0,0,1-.31-.42l-4.3-10.66h-2V30.09a.61.61,0,0,1-.18.42.57.57,0,0,1-.44.2H22.37a.61.61,0,0,1-.42-.2.58.58,0,0,1-.19-.42V.66A.56.56,0,0,1,22,.22.63.63,0,0,1,22.37,0h14a1.41,1.41,0,0,1,.35,0A3,3,0,0,1,37,.2a1.1,1.1,0,0,1,.42.28L40,3a1.19,1.19,0,0,1,.29.44c0,.15.08.28.11.4a3,3,0,0,1,0,.39ZM28.21,13h4.6a.46.46,0,0,0,.31-.13l.7-.7A.35.35,0,0,0,34,12V7.63a.38.38,0,0,0-.13-.26l-.7-.7a.38.38,0,0,0-.26-.13H28.21Z"/><path class="cls-1" d="M59.66.7Q61.85,8.08,64,15.4t4.34,14.69a.35.35,0,0,1-.15.42.8.8,0,0,1-.51.2h-5a.73.73,0,0,1-.48-.2,1.2,1.2,0,0,1-.31-.42l-1-3.55H52L51,30.09a1.09,1.09,0,0,1-.31.42.69.69,0,0,1-.48.2h-5a.8.8,0,0,1-.5-.2c-.16-.13-.22-.27-.16-.42L53.21.7v0c.17-.41.38-.62.61-.62H59c.27,0,.47.21.62.62Zm-.57,19.92-2.63-9-2.68,9Z"/><path class="cls-1" d="M72.07,4.08a1.15,1.15,0,0,1,.05-.39,1.36,1.36,0,0,1,.39-.75L75,.48A1.61,1.61,0,0,1,75.71,0a2.35,2.35,0,0,1,.4,0H87.47a2.23,2.23,0,0,1,.39,0,1.59,1.59,0,0,1,.75.44l2.46,2.46a1.55,1.55,0,0,1,.43.79,1.41,1.41,0,0,1,0,.35h0l0,.09v4.6a.7.7,0,0,1-.62.62H85.71a.55.55,0,0,1-.43-.2.59.59,0,0,1-.18-.41V7.57s0-.05,0-.08A.73.73,0,0,1,85,7.36l-.74-.74a.46.46,0,0,0-.31-.13H79.7a.61.61,0,0,0-.31.13l-.69.75a.67.67,0,0,0-.18.21.06.06,0,0,0,0,.09V23.26a1,1,0,0,1,.07.15.4.4,0,0,0,.11.15l.61.61h5l.61-.59a.41.41,0,0,0,.13-.3V22a.58.58,0,0,1,.18-.4.54.54,0,0,1,.43-.19h5.22a.58.58,0,0,1,.42.19.59.59,0,0,1,.2.42V27c0,.12-.06.22-.09.31a1.77,1.77,0,0,1-.39.48l-2.46,2.44a1.51,1.51,0,0,1-.75.44,1.56,1.56,0,0,1-.39,0H76.11a1.64,1.64,0,0,1-.4,0,1.27,1.27,0,0,1-.74-.44l-2.46-2.46a1.37,1.37,0,0,1-.39-.74,1.25,1.25,0,0,1-.05-.4Z"/><path class="cls-1" d="M114.91.33a.63.63,0,0,1,.19.46V6a.54.54,0,0,1-.19.43.69.69,0,0,1-.46.18h-5.58v23.6a.56.56,0,0,1-.61.53H103a.56.56,0,0,1-.61-.53V6.58H96.85a.69.69,0,0,1-.46-.18A.54.54,0,0,1,96.2,6V.79a.63.63,0,0,1,.19-.46.66.66,0,0,1,.46-.2h17.6A.66.66,0,0,1,114.91.33Z"/><path class="cls-1" d="M133.75.7q2.19,7.38,4.34,14.7t4.34,14.69a.35.35,0,0,1-.15.42.8.8,0,0,1-.51.2h-5a.73.73,0,0,1-.48-.2,1.09,1.09,0,0,1-.31-.42l-1-3.55h-8.82l-1,3.55a1.09,1.09,0,0,1-.31.42.69.69,0,0,1-.48.2h-5a.8.8,0,0,1-.5-.2c-.16-.13-.22-.27-.16-.42L127.3.7v0c.17-.41.38-.62.61-.62h5.22c.27,0,.47.21.62.62Zm-.57,19.92-2.64-9-2.67,9Z"/><path class="cls-1" d="M165,24.46a.55.55,0,0,1,.2.41v5.22a.53.53,0,0,1-.2.44.65.65,0,0,1-.46.18H147a.65.65,0,0,1-.46-.18.56.56,0,0,1-.2-.44V.66h0A.56.56,0,0,1,147,.18h5.17a.55.55,0,0,1,.62.48v23.6h11.75A.59.59,0,0,1,165,24.46Z"/><path class="cls-1" d="M37.51,48a1.61,1.61,0,0,1,0-.39,1.51,1.51,0,0,1,.39-.75l2.46-2.45a1.51,1.51,0,0,1,.75-.44,1.48,1.48,0,0,1,.39,0H52.9a1.62,1.62,0,0,1,.4,0,1.53,1.53,0,0,1,.74.44l2.46,2.45a1.61,1.61,0,0,1,.44.79A1.45,1.45,0,0,1,57,48h0l0,.09v4.61a.7.7,0,0,1-.61.61H51.15a.56.56,0,0,1-.44-.19.61.61,0,0,1-.18-.41V51.53a.12.12,0,0,0,0-.09.48.48,0,0,1-.09-.13l-.74-.74a.44.44,0,0,0-.3-.12H45.13a.48.48,0,0,0-.3.13l-.7.74c-.12.12-.18.19-.18.22s0,.06,0,.08V67.21l.07.15a.33.33,0,0,0,.11.15l.61.61h5l.61-.59a.41.41,0,0,0,.13-.3V66a.59.59,0,0,1,.18-.41.56.56,0,0,1,.44-.19h5.22a.59.59,0,0,1,.41.2A.55.55,0,0,1,57,66v4.94q0,.16-.09.3a1.77,1.77,0,0,1-.39.48L54,74.14a1.46,1.46,0,0,1-.74.43,1.62,1.62,0,0,1-.4.05H41.54a1.48,1.48,0,0,1-.39-.05,1.29,1.29,0,0,1-.75-.44l-2.46-2.45a1.51,1.51,0,0,1-.39-.75,1.61,1.61,0,0,1,0-.39Z"/><path class="cls-1" d="M75.93,44.66Q78.12,52,80.27,59.35t4.35,14.7c.06.14,0,.28-.16.41a.78.78,0,0,1-.5.2H79a.69.69,0,0,1-.48-.2,1.14,1.14,0,0,1-.31-.41l-1-3.56H68.3l-1,3.56a1.14,1.14,0,0,1-.31.41.73.73,0,0,1-.48.2h-5a.8.8,0,0,1-.51-.2c-.16-.13-.21-.27-.15-.41l8.68-29.39v0c.18-.41.38-.61.62-.61h5.22c.26,0,.46.2.61.61Zm-.57,19.91-2.63-9-2.68,9Z"/><path class="cls-1" d="M105.52,44.17a.59.59,0,0,1,.2.44v5.22a.52.52,0,0,1-.35.53v.09H95V56.1h7.76a.55.55,0,0,1,.62.62v5.22a.52.52,0,0,1-.31.53v.08H95v11.5a.54.54,0,0,1-.61.61H89.14a.54.54,0,0,1-.62-.61V44.61a.54.54,0,0,1,.62-.61h16A.64.64,0,0,1,105.52,44.17Z"/><path class="cls-1" d="M116.77,56.1h7.77a.55.55,0,0,1,.61.62v5.22a.54.54,0,0,1-.61.61h-7.77v5.66H126.9a.61.61,0,0,1,.42.18.56.56,0,0,1,.2.44v5.22a.59.59,0,0,1-.2.44.64.64,0,0,1-.42.17h-16a.54.54,0,0,1-.62-.61V44.61a.54.54,0,0,1,.62-.61h16a.64.64,0,0,1,.42.17.59.59,0,0,1,.2.44v5.22a.57.57,0,0,1-.2.44.61.61,0,0,1-.42.18H116.77Z"/></g></g></svg>