<svg xmlns="http://www.w3.org/2000/svg" viewBox="0 0 106.86 48.68"><defs><style>.cls-1{fill:#333;}</style></defs><g id="Layer_2" data-name="Layer 2"><g id="Layer_1-2" data-name="Layer 1"><rect class="cls-1" x="75.03" y="24.03" width="5.44" height="3.23" rx="0.26" transform="matrix(0.94, -0.34, 0.34, 0.94, -4.08, 28.14)"/><path class="cls-1" d="M11,.14a.36.36,0,0,1,.13.29V3.8a.32.32,0,0,1-.23.34V4.2H4.17V7.86h5a.35.35,0,0,1,.4.4v3.37a.33.33,0,0,1-.2.34V12H4.17v7.43a.35.35,0,0,1-.4.4H.4a.35.35,0,0,1-.4-.4V.43A.35.35,0,0,1,.4,0H10.72A.4.4,0,0,1,11,.14Z"/><path class="cls-1" d="M26.13,9.93a1,1,0,0,1,0,.25,1.55,1.55,0,0,1-.07.23.77.77,0,0,1-.19.26l-1.61,1.61-.09.06L27,19.46a.22.22,0,0,1-.09.27.48.48,0,0,1-.3.13h-3.8a.45.45,0,0,1-.32-.13.61.61,0,0,1-.19-.27l-2.78-6.89H18.24v6.89a.4.4,0,0,1-.11.27.36.36,0,0,1-.29.13H14.47a.45.45,0,0,1-.4-.4V.43A.36.36,0,0,1,14.2.14.4.4,0,0,1,14.47,0h9l.23,0L24,.13a.9.9,0,0,1,.27.18l1.61,1.62a.66.66,0,0,1,.19.28c0,.1,0,.18.07.26a1.21,1.21,0,0,1,0,.25Zm-7.89-1.5h3a.28.28,0,0,0,.2-.09l.45-.45A.26.26,0,0,0,22,7.75V4.94a.22.22,0,0,0-.09-.17l-.45-.46a.29.29,0,0,0-.17-.08h-3Z"/><path class="cls-1" d="M38.58.45Q40,5.22,41.39,10t2.81,9.5a.22.22,0,0,1-.1.27.5.5,0,0,1-.33.13H40.54a.43.43,0,0,1-.31-.13.64.64,0,0,1-.2-.27l-.68-2.3H33.64L33,19.46a.61.61,0,0,1-.19.27.45.45,0,0,1-.32.13H29.22a.51.51,0,0,1-.33-.13.24.24,0,0,1-.1-.27l5.62-19v0c.11-.27.25-.4.4-.4h3.37c.17,0,.31.13.4.4Zm-.37,12.88-1.7-5.81-1.73,5.81Z"/><path class="cls-1" d="M46.61,2.64a1,1,0,0,1,0-.26.93.93,0,0,1,.25-.48L48.48.31A1,1,0,0,1,49.22,0h7.35a1,1,0,0,1,.25,0,1,1,0,0,1,.48.28L58.89,1.9a1,1,0,0,1,.29.51.91.91,0,0,1,0,.23h0l0,.06v3a.39.39,0,0,1-.13.27.38.38,0,0,1-.27.13H55.43A.36.36,0,0,1,55.15,6,.41.41,0,0,1,55,5.68V4.9a.07.07,0,0,0,0-.06L55,4.76l-.48-.48a.3.3,0,0,0-.2-.08H51.54a.4.4,0,0,0-.2.08l-.45.48a.75.75,0,0,0-.11.14,0,0,0,0,0,0,.06V15l0,.1a.26.26,0,0,0,.07.1l.4.39h3.27l.39-.38a.26.26,0,0,0,.08-.2v-.82a.43.43,0,0,1,.4-.39h3.38a.45.45,0,0,1,.4.4v3.19c0,.08,0,.14-.06.2a1.42,1.42,0,0,1-.26.31L57.3,19.52a.92.92,0,0,1-.48.28,1,1,0,0,1-.25,0H49.22a1,1,0,0,1-.26,0,.85.85,0,0,1-.48-.28l-1.59-1.59a.93.93,0,0,1-.25-.48,1,1,0,0,1,0-.26Z"/><path class="cls-1" d="M74.31.21a.41.41,0,0,1,.13.3V3.86a.34.34,0,0,1-.13.28.41.41,0,0,1-.3.12h-3.6V19.52a.36.36,0,0,1-.4.34H66.64a.36.36,0,0,1-.4-.34V4.26h-3.6a.41.41,0,0,1-.3-.12.34.34,0,0,1-.13-.28V.51a.41.41,0,0,1,.13-.3.41.41,0,0,1,.3-.12H74A.41.41,0,0,1,74.31.21Z"/><path class="cls-1" d="M86.5.45Q87.91,5.22,89.3,10t2.81,9.5a.21.21,0,0,1-.1.27.47.47,0,0,1-.32.13H88.45a.45.45,0,0,1-.31-.13.73.73,0,0,1-.2-.27l-.68-2.3h-5.7l-.68,2.3a.73.73,0,0,1-.2.27.43.43,0,0,1-.31.13H77.13a.47.47,0,0,1-.32-.13.21.21,0,0,1-.1-.27l5.62-19v0c.11-.27.24-.4.39-.4H86.1c.17,0,.3.13.4.4Zm-.37,12.88-1.7-5.81-1.74,5.81Z"/><path class="cls-1" d="M106.74,15.82a.37.37,0,0,1,.12.27v3.37a.38.38,0,0,1-.12.29.48.48,0,0,1-.3.11H95.09a.48.48,0,0,1-.3-.11.38.38,0,0,1-.12-.29V.43h0a.36.36,0,0,1,.4-.32h3.35a.36.36,0,0,1,.4.32V15.69h7.6A.41.41,0,0,1,106.74,15.82Z"/><path class="cls-1" d="M24.26,31.06a1,1,0,0,1,0-.25.94.94,0,0,1,.26-.48l1.59-1.59a.89.89,0,0,1,.74-.31h7.34a.89.89,0,0,1,.74.31l1.59,1.59a1,1,0,0,1,.28.51.83.83,0,0,1,0,.22h0l0,.06v3a.38.38,0,0,1-.13.27.39.39,0,0,1-.27.13H33.08a.39.39,0,0,1-.29-.13.4.4,0,0,1-.11-.27v-.78s0,0,0,0a.19.19,0,0,1,0-.09l-.48-.47a.28.28,0,0,0-.2-.09H29.19a.35.35,0,0,0-.2.09l-.45.48c-.08.07-.11.12-.11.14a0,0,0,0,0,0,.06V43.46a1,1,0,0,0,0,.1.26.26,0,0,0,.07.1l.39.4H32.2l.4-.39a.27.27,0,0,0,.08-.19v-.83a.42.42,0,0,1,.11-.26.38.38,0,0,1,.29-.12h3.37a.35.35,0,0,1,.27.13.35.35,0,0,1,.13.26v3.2c0,.07,0,.14-.06.19s-.1.16-.25.31L35,47.94a1,1,0,0,1-.48.29,1,1,0,0,1-.26,0H26.87a1,1,0,0,1-.26,0,.86.86,0,0,1-.48-.29l-1.59-1.59a.94.94,0,0,1-.26-.48,1,1,0,0,1,0-.25Z"/><path class="cls-1" d="M49.11,28.88q1.41,4.77,2.8,9.5t2.81,9.51c0,.09,0,.18-.1.27a.51.51,0,0,1-.32.12H51.06a.48.48,0,0,1-.31-.12.94.94,0,0,1-.2-.27l-.68-2.3h-5.7l-.68,2.3a.78.78,0,0,1-.2.27.47.47,0,0,1-.31.12H39.74a.51.51,0,0,1-.32-.12c-.11-.09-.14-.18-.1-.27l5.62-19v0c.11-.26.24-.4.39-.4h3.38c.17,0,.3.14.4.4Zm-.37,12.88L47,35.94,45.3,41.76Z"/><path class="cls-1" d="M68.24,28.57a.34.34,0,0,1,.13.28v3.38a.34.34,0,0,1-.23.34v0H61.42v3.66h5a.36.36,0,0,1,.4.4v3.38a.34.34,0,0,1-.2.34v.05H61.42v7.44a.35.35,0,0,1-.4.39H57.65a.35.35,0,0,1-.4-.39v-19a.35.35,0,0,1,.4-.4H68A.37.37,0,0,1,68.24,28.57Z"/><path class="cls-1" d="M75.52,36.28h5a.36.36,0,0,1,.4.4v3.38a.35.35,0,0,1-.4.39h-5v3.66h6.55a.37.37,0,0,1,.27.12.34.34,0,0,1,.13.28v3.38a.35.35,0,0,1-.13.28.36.36,0,0,1-.27.11H71.74a.34.34,0,0,1-.39-.39v-19a.35.35,0,0,1,.39-.4H82.07a.37.37,0,0,1,.27.12.34.34,0,0,1,.13.28v3.38a.34.34,0,0,1-.13.28.36.36,0,0,1-.27.11H75.52Z"/><path class="cls-1" d="M88,45.17a3.48,3.48,0,1,1,7,0,3.48,3.48,0,1,1-7,0Zm6.41,0a2.93,2.93,0,1,0-5.86,0,2.93,2.93,0,1,0,5.86,0Zm-4.21-2h1.28c.73,0,1.46.25,1.46,1.17a1.09,1.09,0,0,1-.77,1l1,1.61h-.65l-.77-1.43h-1V47h-.54Zm1.12,1.9c.62,0,1-.18,1-.69s-.23-.74-1-.74h-.66v1.43Z"/></g></g></svg>