<svg xmlns="http://www.w3.org/2000/svg" viewBox="0 0 21.28 21.25"><defs><style>.cls-1{fill:#333;}</style></defs><g id="Layer_2" data-name="Layer 2"><g id="Layer_1-2" data-name="Layer 1"><path id="path6205" class="cls-1" d="M10.65,5.2a4.93,4.93,0,0,0-.55,0l-.54.08A4.42,4.42,0,0,0,9,5.45a4.24,4.24,0,0,0-.5.18c-.17.07-.32.15-.48.23l-.45.27c-.14.1-.28.2-.42.32a4.14,4.14,0,0,0-.38.35,4.14,4.14,0,0,0-.35.38c-.12.14-.22.28-.32.42s-.19.3-.27.45a4.23,4.23,0,0,0-.23.48c-.07.16-.13.33-.19.5s-.09.34-.13.52a4.51,4.51,0,0,0-.08.53,5.25,5.25,0,0,0,0,.56,4.93,4.93,0,0,0,0,.55,5,5,0,0,0,.08.54c0,.18.08.35.13.52s.12.34.19.5a5.24,5.24,0,0,0,.23.48,4,4,0,0,0,.27.44,3.32,3.32,0,0,0,.32.42,3.25,3.25,0,0,0,.35.39l.38.35c.14.11.28.22.42.31l.45.28c.16.08.31.16.48.23a4.24,4.24,0,0,0,.5.18l.52.14.54.08a4.93,4.93,0,0,0,.55,0,5.25,5.25,0,0,0,.56,0l.54-.08.52-.14a5,5,0,0,0,.5-.18l.47-.23a4.92,4.92,0,0,0,.45-.28c.14-.09.28-.2.42-.31l.39-.35a4.4,4.4,0,0,0,.35-.39,4.56,4.56,0,0,0,.31-.42c.1-.14.19-.29.28-.44s.16-.32.23-.48.13-.33.18-.5a4.39,4.39,0,0,0,.13-.52,5.07,5.07,0,0,0,.09-.54,5,5,0,0,0,0-.55,5.24,5.24,0,0,0,0-.56A4.51,4.51,0,0,0,16,9.55,4.39,4.39,0,0,0,15.85,9c0-.17-.12-.34-.18-.5s-.15-.32-.23-.48-.18-.3-.28-.45l-.31-.42c-.11-.13-.23-.26-.35-.38s-.26-.24-.39-.35-.28-.22-.42-.32a3.35,3.35,0,0,0-.45-.27l-.47-.23a5,5,0,0,0-.5-.18,5,5,0,0,0-.52-.14l-.54-.08a5.25,5.25,0,0,0-.56,0Zm0,1.88a2.23,2.23,0,0,1,.37,0l.35.05a2.25,2.25,0,0,1,.35.09,1.75,1.75,0,0,1,.32.12l.32.14.29.18a2.78,2.78,0,0,1,.27.21l.26.23.23.25.2.27.18.3.15.31q.06.15.12.33a3.38,3.38,0,0,1,.08.34,2,2,0,0,1,.06.35c0,.12,0,.24,0,.37s0,.24,0,.36a2.25,2.25,0,0,1-.06.36,3.38,3.38,0,0,1-.08.34l-.12.33-.15.31-.18.29a2.83,2.83,0,0,1-.2.28l-.23.25-.26.23a2.69,2.69,0,0,1-.27.2,3,3,0,0,1-.61.33,1.75,1.75,0,0,1-.32.12l-.35.09-.35,0-.37,0-.36,0-.36,0L9.59,14a2.19,2.19,0,0,1-.33-.12A1.77,1.77,0,0,1,9,13.77a2.38,2.38,0,0,1-.3-.18l-.27-.2a4.08,4.08,0,0,1-.48-.48l-.21-.28a2.75,2.75,0,0,1-.17-.29A1.77,1.77,0,0,1,7.37,12a2.19,2.19,0,0,1-.12-.33,1.89,1.89,0,0,1-.09-.34c0-.12,0-.24,0-.36a2.17,2.17,0,0,1,0-.36,2.23,2.23,0,0,1,0-.37c0-.12,0-.24,0-.35a1.89,1.89,0,0,1,.09-.34,1.61,1.61,0,0,1,.12-.33,1.77,1.77,0,0,1,.15-.31c.05-.1.11-.2.17-.3l.21-.27a4.08,4.08,0,0,1,.48-.48l.27-.21L9,7.5l.31-.14a2.19,2.19,0,0,1,.33-.12,1.89,1.89,0,0,1,.34-.09l.36-.05A2.17,2.17,0,0,1,10.65,7.08Z"/><path id="path6212" class="cls-1" d="M16.32,3.65h-.13l-.13,0-.13,0-.12,0-.12.05-.11.07-.1.08-.09.09-.09.1-.08.1-.06.12a.61.61,0,0,0-.05.12.56.56,0,0,0,0,.12l0,.13s0,.08,0,.13V5a.57.57,0,0,0,0,.13.69.69,0,0,0,0,.13.27.27,0,0,0,0,.12.5.5,0,0,0,0,.13l.06.11a.75.75,0,0,0,.07.12l.07.1.09.09.1.09.11.08.11.06.12,0,.12,0,.13,0,.12,0h.22l.13,0,.13,0,.12,0,.12-.06L17.05,6l.1-.08.1-.09.08-.1a1,1,0,0,0,.08-.11l.06-.11a.61.61,0,0,0,.05-.12.56.56,0,0,0,0-.12.31.31,0,0,0,0-.13.59.59,0,0,0,0-.13V4.83a.69.69,0,0,1,0-.13.65.65,0,0,0,0-.13.56.56,0,0,0,0-.12l-.06-.12-.06-.11-.08-.1L17.22,4a.39.39,0,0,0-.1-.08L17,3.86,16.9,3.8l-.11-.06-.13,0-.12,0h-.22Z"/><path id="path6188" class="cls-1" d="M9.62,0H8L6.75,0l-1,.07-.42,0L4.94.21,4.59.28,4.28.35,4,.44,3.71.55a5.38,5.38,0,0,0-.55.24L2.76,1a2.71,2.71,0,0,0-.35.24l-.35.28-.35.35a5.24,5.24,0,0,0-.4.46l-.17.22L1,2.78.86,3l-.12.24a4.65,4.65,0,0,0-.22.54c-.06.15-.1.3-.15.45s-.08.32-.11.5a4.27,4.27,0,0,0-.09.57c0,.21-.05.43-.07.69s0,.53,0,.84,0,.65,0,1,0,.79,0,1.25v1.52c0,.83,0,1.56,0,2.2s0,1.2,0,1.67c0,.24,0,.46,0,.65s0,.38,0,.54,0,.31,0,.44,0,.24.06.34.1.4.16.59a5.1,5.1,0,0,0,.19.55c.07.17.15.35.23.51s.18.32.28.47a4.37,4.37,0,0,0,.31.44,4.48,4.48,0,0,0,.36.4c.12.12.26.24.4.36a5,5,0,0,0,.44.32,3.19,3.19,0,0,0,.42.26,3.48,3.48,0,0,0,.43.22,4.22,4.22,0,0,0,.45.18l.49.14L5,21l.62.09.71.06.81,0,1.91,0c.78,0,1.67,0,2.53,0l2.4,0,.91,0,.6,0,.37,0,.36-.05.34-.06.32-.08a1.68,1.68,0,0,0,.32-.09l.31-.1.31-.13.31-.14.4-.2.3-.19.3-.25c.11-.1.23-.22.38-.38l.35-.35c.1-.11.18-.21.25-.3a2.22,2.22,0,0,0,.19-.27c.06-.09.11-.19.17-.29l.22-.45c.06-.15.12-.28.17-.42s.09-.28.13-.43.07-.31.1-.48.06-.36.08-.57,0-.45.05-.71,0-.55,0-.87,0-.69,0-1.09,0-.8,0-1.22,0-.84,0-1.26c0-.86,0-1.71,0-2.5q0-.59,0-1.11c0-.35,0-.67,0-1s0-.54-.05-.75,0-.37-.06-.48,0-.25-.08-.37-.06-.23-.1-.35-.07-.23-.11-.34l-.12-.32c0-.1-.09-.21-.14-.31L20.38,3c-.05-.1-.11-.19-.17-.29A2.4,2.4,0,0,0,20,2.4l-.19-.26-.21-.24-.23-.22-.24-.21a2.43,2.43,0,0,0-.25-.2l-.27-.18a2.61,2.61,0,0,0-.28-.17c-.1-.05-.2-.11-.3-.15a3.92,3.92,0,0,0-.47-.22L17.14.38l-.5-.13L16.05.16,15.31.1l-1,0L13.14,0,11.6,0Zm1,1.88H13.5l1.07,0,.66,0c.17,0,.33,0,.49.06l.45.07.41.11a2.43,2.43,0,0,1,.38.13,3.49,3.49,0,0,1,.34.15,3.37,3.37,0,0,1,.32.19l.3.22.28.25.26.3a2.18,2.18,0,0,1,.22.31,2.27,2.27,0,0,1,.19.34,2.5,2.5,0,0,1,.15.38c.05.14.09.28.13.43l.09.49c0,.18.05.37.07.56s0,.42.05.64,0,.43,0,.71,0,.61,0,1c0,.71,0,1.54,0,2.37s0,1.66,0,2.38c0,.35,0,.68,0,1s0,.53,0,.71c0,.33,0,.6-.07.84a3.18,3.18,0,0,1,0,.34c0,.1,0,.2-.05.29l-.06.27a1.83,1.83,0,0,1-.08.25l-.09.25c0,.08-.07.16-.11.25l-.11.22-.12.2-.13.2-.15.18-.16.17-.17.16-.18.15-.19.13-.21.13-.22.11-.24.1-.25.1c-.17,0-.35.11-.54.15l-.59.11-.51,0-1,0-2.74,0h-4l-.74,0-.53,0-.47-.05-.41-.06-.36-.08A1.78,1.78,0,0,1,4.55,19l-.29-.11A2.44,2.44,0,0,1,4,18.77l-.28-.16-.2-.13-.19-.15-.17-.15L3,18l-.15-.17-.13-.19-.12-.2a1.28,1.28,0,0,1-.11-.2,2.29,2.29,0,0,1-.1-.23,1.7,1.7,0,0,1-.09-.24,3.55,3.55,0,0,1-.15-.52c0-.19-.08-.39-.11-.6S2,15.24,1.94,15s0-.44,0-.79,0-.76,0-1.22c0-.93,0-2,0-3.12s0-2.14.05-3c0-.42,0-.78,0-1.05s0-.26,0-.35a1.78,1.78,0,0,1,0-.2c0-.14.06-.26.09-.38a1.59,1.59,0,0,1,.09-.33,2.64,2.64,0,0,1,.1-.3c0-.09.07-.17.11-.26s.09-.16.14-.24.1-.15.15-.23l.19-.22.21-.23.29-.26a3.15,3.15,0,0,1,.29-.22A3,3,0,0,1,4,2.44l.33-.15.36-.12.41-.1L5.56,2l.52-.06.65,0,1.07,0Z"/></g></g></svg>