<svg xmlns="http://www.w3.org/2000/svg" viewBox="0 0 27.13 27.08"><defs><style>.cls-1{fill:#fff;}</style></defs><g id="Layer_2" data-name="Layer 2"><g id="Layer_1-2" data-name="Layer 1"><path id="path6205" class="cls-1" d="M13.58,6.63c-.24,0-.48,0-.71,0s-.46.06-.69.11-.44.1-.66.17-.43.15-.64.24a4.15,4.15,0,0,0-.6.29c-.2.11-.39.22-.58.35a4.91,4.91,0,0,0-.53.4c-.17.14-.34.29-.49.44s-.31.33-.45.5-.28.35-.4.53-.24.38-.35.57a4.85,4.85,0,0,0-.29.61q-.14.32-.24.63c-.07.22-.12.44-.17.67s-.08.45-.11.68,0,.47,0,.71,0,.47,0,.71.06.46.11.68.1.45.17.67.15.42.24.63a4.85,4.85,0,0,0,.29.61c.11.19.22.38.35.57s.26.36.4.53.29.34.45.5.32.3.49.44a4.91,4.91,0,0,0,.53.4c.19.13.38.24.58.35a4.15,4.15,0,0,0,.6.29c.21.09.42.17.64.24s.44.12.66.17.46.08.69.11.47,0,.71,0,.47,0,.7,0,.47-.06.69-.11a6.36,6.36,0,0,0,.66-.17c.22-.07.43-.15.64-.24a4.85,4.85,0,0,0,.61-.29c.19-.11.39-.22.57-.35a4.91,4.91,0,0,0,.53-.4c.18-.14.34-.29.5-.44l.45-.5c.14-.17.27-.35.4-.53s.24-.38.34-.57.21-.4.3-.61.16-.42.23-.63a5.06,5.06,0,0,0,.17-.67,5.07,5.07,0,0,0,.11-.68c0-.24,0-.47,0-.71s0-.47,0-.71a5.07,5.07,0,0,0-.11-.68,5.06,5.06,0,0,0-.17-.67c-.07-.21-.14-.42-.23-.63s-.19-.41-.3-.61-.22-.38-.34-.57-.26-.36-.4-.53l-.45-.5c-.16-.15-.32-.3-.5-.44a4.91,4.91,0,0,0-.53-.4c-.18-.13-.38-.24-.57-.35a4.85,4.85,0,0,0-.61-.29c-.21-.09-.42-.17-.64-.24A6.36,6.36,0,0,0,15,6.77c-.22,0-.45-.08-.69-.11s-.46,0-.7,0Zm0,2.39L14,9l.46.07.43.11a4.09,4.09,0,0,1,.42.16,2.93,2.93,0,0,1,.4.19l.37.22.35.26c.11.1.22.19.32.3a3,3,0,0,1,.3.32c.09.11.18.23.26.35a2.77,2.77,0,0,1,.22.37c.07.13.14.26.2.4l.15.42c0,.14.08.28.11.43s0,.3.07.45,0,.31,0,.47,0,.31,0,.47,0,.3-.07.45-.07.29-.11.44l-.15.41c-.06.14-.13.27-.2.4a2.77,2.77,0,0,1-.22.37c-.08.12-.17.24-.26.35a2.27,2.27,0,0,1-.3.32c-.1.11-.21.2-.32.3l-.35.26-.37.22a2.93,2.93,0,0,1-.4.19,4.09,4.09,0,0,1-.42.16L14.5,18l-.46.07-.46,0-.47,0L12.66,18l-.44-.11-.42-.16a2.81,2.81,0,0,1-.39-.19c-.13-.07-.26-.14-.38-.22l-.35-.26c-.11-.1-.22-.19-.32-.3a3,3,0,0,1-.29-.32,2.88,2.88,0,0,1-.26-.35,2.85,2.85,0,0,1-.23-.37c-.07-.13-.13-.26-.19-.4a2.86,2.86,0,0,1-.15-.41,3.54,3.54,0,0,1-.11-.44A3.5,3.5,0,0,1,9.06,14a3.7,3.7,0,0,1,0-.94,3.5,3.5,0,0,1,.07-.45,3,3,0,0,1,.11-.43,2.6,2.6,0,0,1,.15-.42c.06-.14.12-.27.19-.4A2.85,2.85,0,0,1,9.81,11a2.88,2.88,0,0,1,.26-.35c.09-.11.19-.22.29-.32s.21-.2.32-.3L11,9.79c.12-.08.25-.15.38-.22a2.81,2.81,0,0,1,.39-.19l.42-.16.44-.11L13.11,9Z"/><path id="path6212" class="cls-1" d="M20.8,4.66h-.17l-.16,0-.16,0-.16.06L20,4.86,19.86,5l-.13.1-.12.11-.11.13-.09.13-.09.15-.06.15-.06.16,0,.16a.88.88,0,0,0,0,.16s0,.08,0,.12,0,.11,0,.17l0,.16a.94.94,0,0,0,0,.16,1,1,0,0,0,.05.16l.08.15a1,1,0,0,0,.08.14l.1.13.12.12a.63.63,0,0,0,.12.11l.13.1.15.08.15.07.15,0,.17,0,.16,0H21l.16,0,.16,0,.16-.06.15-.07.14-.09.13-.1L22,7.48a.69.69,0,0,0,.11-.13,1.47,1.47,0,0,0,.1-.13l.08-.15.07-.15s0-.1.05-.16a.76.76,0,0,0,0-.16.88.88,0,0,0,0-.16.49.49,0,0,0,0-.12,1,1,0,0,0,0-.17c0-.05,0-.11,0-.16s0-.11-.05-.16a1,1,0,0,0-.05-.16l-.07-.15-.09-.14a1.13,1.13,0,0,0-.1-.13L22,5.13A.69.69,0,0,0,21.82,5l-.13-.1-.14-.08-.16-.07-.15,0-.16,0-.17,0Z"/><path id="path6188" class="cls-1" d="M12.26,0h-2L8.61.05q-.72,0-1.29.09c-.19,0-.37,0-.54.06L6.3.27,5.86.35l-.41.1L5.08.57,4.72.7A7,7,0,0,0,4,1c-.18.09-.35.18-.51.28s-.3.19-.45.3A4.8,4.8,0,0,0,2.63,2l-.45.44c-.19.2-.36.39-.51.58l-.22.28-.18.28c-.06.1-.12.19-.17.29a3,3,0,0,0-.16.31,6.8,6.8,0,0,0-.28.7,4.75,4.75,0,0,0-.18.57A5.3,5.3,0,0,0,.33,6c0,.22-.08.46-.12.73s-.06.55-.08.87,0,.68-.06,1.07S0,9.54,0,10s0,1,0,1.6,0,1.22,0,1.93c0,1.06,0,2,0,2.81s0,1.52.05,2.13c0,.3,0,.58,0,.83s0,.48.05.69,0,.39.06.55.05.31.08.44.12.5.2.75.15.47.24.7.19.44.3.65a5.88,5.88,0,0,0,.35.6c.12.19.26.38.4.56s.29.34.45.5.33.32.51.47.37.28.57.41.35.23.53.33a5.68,5.68,0,0,0,.55.28l.58.23.62.18c.22,0,.45.1.7.14l.79.1L8,27,9,27c.57,0,1.44,0,2.43,0H14.7l3.06,0,1.16,0,.76,0,.47-.05.46-.06.43-.08.42-.1c.13,0,.27-.07.4-.12l.4-.13.39-.16a3.39,3.39,0,0,0,.39-.18,4.89,4.89,0,0,0,.51-.25,3.57,3.57,0,0,0,.38-.25,3.45,3.45,0,0,0,.39-.32l.49-.48.44-.45c.12-.14.23-.26.32-.38s.17-.23.25-.34.14-.24.21-.38l.28-.57c.08-.18.15-.36.22-.54a4.26,4.26,0,0,0,.16-.54,4.81,4.81,0,0,0,.13-.62c0-.22.07-.46.1-.72s0-.57.07-.9,0-.7.05-1.12,0-.87,0-1.38,0-1,0-1.55,0-1.08,0-1.62c0-1.09,0-2.18,0-3.18,0-.5,0-1,0-1.42s0-.85,0-1.22,0-.69-.07-.95-.05-.48-.07-.62-.07-.31-.11-.46a3,3,0,0,0-.12-.45c0-.15-.09-.29-.14-.43l-.15-.41-.18-.4C26.11,4,26,3.88,26,3.76a3.13,3.13,0,0,0-.22-.36,4,4,0,0,0-.23-.34l-.25-.33L25,2.43l-.29-.29-.3-.27-.33-.25a4,4,0,0,0-.34-.23l-.36-.22C23.28,1.1,23.15,1,23,1s-.41-.2-.6-.28a5.71,5.71,0,0,0-.58-.21,4.77,4.77,0,0,0-.63-.17c-.22,0-.47-.08-.75-.11s-.59-.06-.94-.08-.76,0-1.22-.06L16.75,0l-2,0Zm1.31,2.39,3.63,0,1.37,0,.84,0,.63.07.57.1.52.13c.17,0,.33.11.48.17a4.48,4.48,0,0,1,.44.2,3.38,3.38,0,0,1,.41.24l.38.28.35.32a4,4,0,0,1,.34.38,4,4,0,0,1,.29.39c.08.14.16.29.23.44a3.13,3.13,0,0,1,.2.49c.06.17.11.35.16.54l.12.63c0,.22.06.46.09.71s0,.53.06.82,0,.54,0,.9,0,.78,0,1.24c0,.91,0,2,0,3s0,2.12,0,3c0,.45,0,.87,0,1.23s0,.66,0,.89c0,.42-.05.78-.08,1.08s0,.3-.05.43a3.7,3.7,0,0,1-.07.38,3.38,3.38,0,0,1-.08.34c0,.11-.06.21-.09.32l-.12.31-.14.32a2.44,2.44,0,0,1-.14.28l-.15.26-.17.25a2.11,2.11,0,0,1-.19.23,3.13,3.13,0,0,1-.42.42,2.11,2.11,0,0,1-.23.19,2.2,2.2,0,0,1-.25.17,2.26,2.26,0,0,1-.26.16l-.29.15-.3.13-.31.12a7,7,0,0,1-.69.19,5.7,5.7,0,0,1-.76.14,5.46,5.46,0,0,1-.65,0l-1.23,0-3.49,0c-1.28,0-2.57,0-3.66,0l-1.44,0-.93,0-.68,0-.6-.06-.52-.08-.47-.1-.41-.11c-.13-.05-.25-.09-.37-.15a4,4,0,0,1-.36-.17,3.24,3.24,0,0,1-.35-.21l-.26-.17-.24-.18L4,23.17,3.8,23c-.07-.07-.13-.15-.19-.22l-.17-.24c0-.08-.11-.16-.16-.25s-.09-.17-.14-.27L3,21.71l-.12-.3c-.07-.21-.13-.44-.19-.67s-.1-.49-.14-.76-.07-.55-.09-.86,0-.57,0-1,0-1,0-1.55c0-1.18,0-2.59,0-4s0-2.73.07-3.79c0-.53,0-1,0-1.34,0-.17,0-.32,0-.44s0-.21,0-.26.07-.33.11-.48.07-.29.11-.42L3,5.47l.15-.33a3.07,3.07,0,0,1,.17-.31c.06-.1.13-.19.2-.29a3,3,0,0,1,.24-.28A3.58,3.58,0,0,1,4,4l.36-.34.37-.28a4,4,0,0,1,.39-.23,2.71,2.71,0,0,1,.42-.2A3.53,3.53,0,0,1,6,2.77l.52-.13.59-.09.66-.07c.17,0,.45,0,.83,0l1.36,0Z"/></g></g></svg>