<svg xmlns="http://www.w3.org/2000/svg" viewBox="0 0 23.23 18.88"><defs><style>.cls-1{fill:#333;}</style></defs><g id="Layer_2" data-name="Layer 2"><g id="Layer_1-2" data-name="Layer 1"><path class="cls-1" d="M23.18,2.25A9.94,9.94,0,0,1,20.45,3,4.78,4.78,0,0,0,22.54.36a9.84,9.84,0,0,1-3,1.15,4.76,4.76,0,0,0-8.24,3.25,4.86,4.86,0,0,0,.12,1.09,13.48,13.48,0,0,1-9.81-5A4.58,4.58,0,0,0,.94,3.28a4.75,4.75,0,0,0,2.12,4A4.77,4.77,0,0,1,.9,6.65v.06a4.77,4.77,0,0,0,3.82,4.67,4.71,4.71,0,0,1-1.25.16,4.34,4.34,0,0,1-.89-.08A4.79,4.79,0,0,0,7,14.77a9.55,9.55,0,0,1-5.91,2A10.71,10.71,0,0,1,0,16.74a13.53,13.53,0,0,0,7.31,2.14A13.45,13.45,0,0,0,20.86,5.34c0-.2,0-.4,0-.61a9.6,9.6,0,0,0,2.38-2.46Z"/></g></g></svg>