<svg xmlns="http://www.w3.org/2000/svg" viewBox="0 0 29.61 24.06"><defs><style>.cls-1{fill:#fff;}</style></defs><g id="Layer_2" data-name="Layer 2"><g id="Layer_1-2" data-name="Layer 1"><path class="cls-1" d="M29.55,2.86a12.06,12.06,0,0,1-3.48,1A6.06,6.06,0,0,0,28.73.46a12.18,12.18,0,0,1-3.85,1.46,6.07,6.07,0,0,0-10.5,4.15,6.21,6.21,0,0,0,.15,1.38A17.23,17.23,0,0,1,2,1.13,6,6,0,0,0,1.2,4.18,6.06,6.06,0,0,0,3.9,9.23a6.1,6.1,0,0,1-2.75-.75v.07A6.06,6.06,0,0,0,6,14.5a5.9,5.9,0,0,1-2.73.11A6.09,6.09,0,0,0,9,18.82a12.16,12.16,0,0,1-7.53,2.6A13.9,13.9,0,0,1,0,21.34a17.25,17.25,0,0,0,9.32,2.72c11.17,0,17.27-9.24,17.27-17.25,0-.26,0-.52,0-.78a12.4,12.4,0,0,0,3-3.14Z"/></g></g></svg>